# xmcd
#
# Track frame offsets:
#	150
#	21078
#	43114
#	74545
#	94809
#	118181
#	139681
#	159504
#	176247
#	194601
#	217146
#	239544
#	261368
#	279553
#	309645
#
# Disc length: 4364 seconds
#
# Revision: 0
# Processed by: cddbd v1.5.2PL0 Copyright (c) Steve Scherf et al.
# Submitted via: audiograbber 1.83.01
#
DISCID=f0110a0f
DTITLE=Romantic Melodies - Velvet Blues
DYEAR=2004
DGENRE=Blues
TTITLE0=Dana Gilespie - Where Blues Begins
TTITLE1=Stevie Ray Vaughan - The Things Than I Used to Do
TTITLE2=Blindside Blues Band - Truth Never Lies
TTITLE3=George Fame - Georgia On My Mind
TTITLE4=Toni Joe White - Good in Blues
TTITLE5=Blues Broers - Dolly Mae
TTITLE6=Savoy Brown - You're In For A Big Surprise
TTITLE7=Neville Brothers - Ain't No Sunshine
TTITLE8=Omar and The Howlers - Life Without You
TTITLE9=Living Blues - Blue Breeze
TTITLE10=Jhon Campbell - Wild Streak
TTITLE11=Grand Funk - This is A Man's World
TTITLE12=Bryan Lee - Doggin' Down Blues
TTITLE13=Garry Moore - Parisiene Walkways
TTITLE14=Johnny Winter - Kiss Tomorrow Goodbye
EXTD=
EXTT0=
EXTT1=
EXTT2=
EXTT3=
EXTT4=
EXTT5=
EXTT6=
EXTT7=
EXTT8=
EXTT9=
EXTT10=
EXTT11=
EXTT12=
EXTT13=
EXTT14=
PLAYORDER=
